<svg width="1024" height="1024" viewBox="0 0 1024 1024" fill="none" xmlns="http://www.w3.org/2000/svg">
<rect x="100" y="100" width="825" height="825" rx="184" fill="white"/>
<g filter="url(#filter0_i_618_231)">
<path d="M512.5 835C690.612 835 835 731.866 835 604.643C835 477.42 690.612 374.286 512.5 374.286C334.388 374.286 190 477.42 190 604.643C190 731.866 334.388 835 512.5 835Z" fill="#FFDC60"/>
<path d="M512.615 604.643C627.116 604.643 719.937 511.822 719.937 397.321C719.937 282.821 627.116 190 512.615 190C398.115 190 305.294 282.821 305.294 397.321C305.294 511.822 398.115 604.643 512.615 604.643Z" fill="#FFDC60"/>
<path d="M443.393 378.893C458.66 378.893 471.036 366.517 471.036 351.25C471.036 335.983 458.66 323.607 443.393 323.607C428.126 323.607 415.75 335.983 415.75 351.25C415.75 366.517 428.126 378.893 443.393 378.893Z" fill="#333333"/>
<path d="M581.607 378.893C596.873 378.893 609.25 366.517 609.25 351.25C609.25 335.983 596.873 323.607 581.607 323.607C566.34 323.607 553.964 335.983 553.964 351.25C553.964 366.517 566.34 378.893 581.607 378.893Z" fill="#333333"/>
<path d="M682.964 558.571H342.036C329.313 558.571 319 568.885 319 581.607V811.964C319 824.686 329.313 835 342.036 835H682.964C695.687 835 706 824.686 706 811.964V581.607C706 568.885 695.687 558.571 682.964 558.571Z" fill="#4CAF50"/>
<path d="M489.464 581.607H355.857C348.223 581.607 342.035 587.795 342.035 595.429V798.143C342.035 805.776 348.223 811.964 355.857 811.964H489.464C497.097 811.964 503.285 805.776 503.285 798.143V595.429C503.285 587.795 497.097 581.607 489.464 581.607Z" fill="white"/>
<path d="M457.198 408.051C456.682 407.492 456.973 406.592 457.716 406.429C494.239 398.432 530.761 398.432 567.284 406.429C568.027 406.592 568.318 407.492 567.802 408.051C555.327 421.552 537 432.413 512.822 440.635C512.614 440.705 512.386 440.705 512.178 440.635C488 432.413 469.673 421.552 457.198 408.051Z" fill="#FF9800"/>
<path d="M669.143 581.607H535.536C527.903 581.607 521.715 587.795 521.715 595.429V798.143C521.715 805.776 527.903 811.964 535.536 811.964H669.143C676.777 811.964 682.965 805.776 682.965 798.143V595.429C682.965 587.795 676.777 581.607 669.143 581.607Z" fill="white"/>
<path d="M480.248 600.036H365.069C362.525 600.036 360.462 602.098 360.462 604.643V685.268C360.462 687.812 362.525 689.875 365.069 689.875H480.248C482.792 689.875 484.855 687.812 484.855 685.268V604.643C484.855 602.098 482.792 600.036 480.248 600.036Z" stroke="#999999" stroke-width="10"/>
<path d="M408.837 706H365.069C362.525 706 360.462 708.062 360.462 710.607V791.232C360.462 793.776 362.525 795.839 365.069 795.839H408.837C411.381 795.839 413.444 793.776 413.444 791.232V710.607C413.444 708.062 411.381 706 408.837 706Z" stroke="#999999" stroke-width="10"/>
<path d="M480.247 706H436.479C433.935 706 431.872 708.062 431.872 710.607V791.232C431.872 793.776 433.935 795.839 436.479 795.839H480.247C482.792 795.839 484.854 793.776 484.854 791.232V710.607C484.854 708.062 482.792 706 480.247 706Z" stroke="#999999" stroke-width="10"/>
<path d="M588.516 600.035H544.748C542.203 600.035 540.141 602.098 540.141 604.642V685.267C540.141 687.812 542.203 689.875 544.748 689.875H588.516C591.06 689.875 593.123 687.812 593.123 685.267V604.642C593.123 602.098 591.06 600.035 588.516 600.035Z" stroke="#999999" stroke-width="10"/>
<path d="M659.925 600.035H616.157C613.612 600.035 611.55 602.098 611.55 604.642V685.267C611.55 687.812 613.612 689.874 616.157 689.874H659.925C662.469 689.874 664.532 687.812 664.532 685.267V604.642C664.532 602.098 662.469 600.035 659.925 600.035Z" stroke="#999999" stroke-width="10"/>
<path d="M659.926 705.999H544.748C542.203 705.999 540.141 708.062 540.141 710.606V791.231C540.141 793.776 542.203 795.839 544.748 795.839H659.926C662.471 795.839 664.533 793.776 664.533 791.231V710.606C664.533 708.062 662.471 705.999 659.926 705.999Z" stroke="#999999" stroke-width="10"/>
<path d="M512.5 581.607V811.964" stroke="#4CAF50" stroke-width="2"/>
</g>
<defs>
<filter id="filter0_i_618_231" x="190" y="190" width="645" height="649" filterUnits="userSpaceOnUse" color-interpolation-filters="sRGB">
<feFlood flood-opacity="0" result="BackgroundImageFix"/>
<feBlend mode="normal" in="SourceGraphic" in2="BackgroundImageFix" result="shape"/>
<feColorMatrix in="SourceAlpha" type="matrix" values="0 0 0 0 0 0 0 0 0 0 0 0 0 0 0 0 0 0 127 0" result="hardAlpha"/>
<feOffset dy="4"/>
<feGaussianBlur stdDeviation="2"/>
<feComposite in2="hardAlpha" operator="arithmetic" k2="-1" k3="1"/>
<feColorMatrix type="matrix" values="0 0 0 0 0 0 0 0 0 0 0 0 0 0 0 0 0 0 0.25 0"/>
<feBlend mode="normal" in2="shape" result="effect1_innerShadow_618_231"/>
</filter>
</defs>
</svg>
