<svg width="800" height="800" viewBox="0 0 800 800" fill="none" xmlns="http://www.w3.org/2000/svg">
<g filter="url(#filter0_i_618_186)">
<path d="M400 800C620.914 800 800 672.081 800 514.286C800 356.49 620.914 228.572 400 228.572C179.086 228.572 0 356.49 0 514.286C0 672.081 179.086 800 400 800Z" fill="#FFDC60"/>
<path d="M400.143 514.286C542.159 514.286 657.286 399.159 657.286 257.143C657.286 115.127 542.159 0 400.143 0C258.127 0 143 115.127 143 257.143C143 399.159 258.127 514.286 400.143 514.286Z" fill="#FFDC60"/>
<path d="M314.286 234.286C333.221 234.286 348.571 218.936 348.571 200C348.571 181.065 333.221 165.714 314.286 165.714C295.35 165.714 280 181.065 280 200C280 218.936 295.35 234.286 314.286 234.286Z" fill="#333333"/>
<path d="M485.713 234.286C504.649 234.286 519.999 218.936 519.999 200C519.999 181.065 504.649 165.714 485.713 165.714C466.778 165.714 451.428 181.065 451.428 200C451.428 218.936 466.778 234.286 485.713 234.286Z" fill="#333333"/>
<path d="M611.429 457.143H188.571C172.792 457.143 160 469.935 160 485.714V771.428C160 787.208 172.792 800 188.571 800H611.429C627.208 800 640 787.208 640 771.428V485.714C640 469.935 627.208 457.143 611.429 457.143Z" fill="#4CAF50"/>
<path d="M371.428 485.714H205.714C196.246 485.714 188.571 493.389 188.571 502.857V754.286C188.571 763.754 196.246 771.429 205.714 771.429H371.428C380.896 771.429 388.571 763.754 388.571 754.286V502.857C388.571 493.389 380.896 485.714 371.428 485.714Z" fill="white"/>
<path d="M331.133 270.151C330.618 269.59 330.911 268.69 331.654 268.526C377.218 258.491 422.782 258.491 468.346 268.526C469.089 268.69 469.382 269.59 468.867 270.151C453.376 287.05 430.527 300.63 400.322 310.891C400.114 310.961 399.886 310.961 399.678 310.891C369.473 300.63 346.624 287.05 331.133 270.151Z" fill="#FF9800"/>
<path d="M594.286 485.714H428.572C419.104 485.714 411.429 493.389 411.429 502.857V754.286C411.429 763.754 419.104 771.429 428.572 771.429H594.286C603.754 771.429 611.429 763.754 611.429 754.286V502.857C611.429 493.389 603.754 485.714 594.286 485.714Z" fill="white"/>
<path d="M360 508.571H217.143C213.987 508.571 211.429 511.13 211.429 514.286V614.286C211.429 617.442 213.987 620 217.143 620H360C363.156 620 365.714 617.442 365.714 614.286V514.286C365.714 511.13 363.156 508.571 360 508.571Z" stroke="#999999" stroke-width="5"/>
<path d="M271.429 640H217.143C213.987 640 211.429 642.558 211.429 645.714V745.714C211.429 748.87 213.987 751.428 217.143 751.428H271.429C274.585 751.428 277.143 748.87 277.143 745.714V645.714C277.143 642.558 274.585 640 271.429 640Z" stroke="#999999" stroke-width="5"/>
<path d="M360 640H305.714C302.558 640 300 642.558 300 645.714V745.714C300 748.87 302.558 751.428 305.714 751.428H360C363.156 751.428 365.714 748.87 365.714 745.714V645.714C365.714 642.558 363.156 640 360 640Z" stroke="#999999" stroke-width="5"/>
<path d="M494.285 508.571H439.999C436.844 508.571 434.285 511.13 434.285 514.285V614.285C434.285 617.441 436.844 620 439.999 620H494.285C497.441 620 499.999 617.441 499.999 614.285V514.285C499.999 511.13 497.441 508.571 494.285 508.571Z" stroke="#999999" stroke-width="5"/>
<path d="M582.855 508.571H528.57C525.414 508.571 522.855 511.129 522.855 514.285V614.285C522.855 617.441 525.414 619.999 528.57 619.999H582.855C586.011 619.999 588.57 617.441 588.57 614.285V514.285C588.57 511.129 586.011 508.571 582.855 508.571Z" stroke="#999999" stroke-width="5"/>
<path d="M582.857 639.999H439.999C436.844 639.999 434.285 642.558 434.285 645.714V745.714C434.285 748.869 436.844 751.428 439.999 751.428H582.857C586.012 751.428 588.571 748.869 588.571 745.714V645.714C588.571 642.558 586.012 639.999 582.857 639.999Z" stroke="#999999" stroke-width="5"/>
<path d="M400 485.714V771.429" stroke="#4CAF50" stroke-width="2"/>
</g>
<defs>
<filter id="filter0_i_618_186" x="0" y="0" width="800" height="804" filterUnits="userSpaceOnUse" color-interpolation-filters="sRGB">
<feFlood flood-opacity="0" result="BackgroundImageFix"/>
<feBlend mode="normal" in="SourceGraphic" in2="BackgroundImageFix" result="shape"/>
<feColorMatrix in="SourceAlpha" type="matrix" values="0 0 0 0 0 0 0 0 0 0 0 0 0 0 0 0 0 0 127 0" result="hardAlpha"/>
<feOffset dy="4"/>
<feGaussianBlur stdDeviation="2"/>
<feComposite in2="hardAlpha" operator="arithmetic" k2="-1" k3="1"/>
<feColorMatrix type="matrix" values="0 0 0 0 0 0 0 0 0 0 0 0 0 0 0 0 0 0 0.25 0"/>
<feBlend mode="normal" in2="shape" result="effect1_innerShadow_618_186"/>
</filter>
</defs>
</svg>
